<svg id="Layer_2" data-name="Layer 2" xmlns="http://www.w3.org/2000/svg" xmlns:xlink="http://www.w3.org/1999/xlink" viewBox="0 0 400 300" data-imageid="adventure-isometric" imageName="Adventure" className="illustrations_image" style="width: 158px;"><defs><linearGradient id="linear-gradient" x1="133.83" y1="248.51" x2="270.27" y2="112.07" gradientUnits="userSpaceOnUse"><stop offset="0" stop-opacity="0"/><stop offset="0.99" stop-color="#006837"/></linearGradient><linearGradient id="linear-gradient-2" x1="296.48" y1="185.6" x2="341.19" y2="140.89" gradientUnits="userSpaceOnUse"><stop offset="0" stop-opacity="0"/><stop offset="1" stop-color="#f15a24"/></linearGradient><linearGradient id="linear-gradient-3" x1="86.95" y1="198.44" x2="131.66" y2="153.72" xlink:href="#linear-gradient-2"/></defs><title>191-200</title><path d="M36.6,209c26.89,15.2,91.92,53.68,118.06,69.19a22,22,0,0,0,22.37.07L362.8,169.66a7.5,7.5,0,0,0-.07-13L244,89a18.91,18.91,0,0,0-18.69,0L36.6,196A7.5,7.5,0,0,0,36.6,209Z" fill="#34b5e2"/><polyline points="161.91 192.52 86.27 234.42 131.22 261.32 250.28 193.71" fill="url(#linear-gradient)"/><path d="M286.58,156.17s1.37,9.61,0,12.37S224.94,213.18,197,220.42s-52.35,3.71-56.17.19,6.16-23.3,23.78-21.48" fill="#218782"/><path d="M131.22,206.27s-7.5-10.54,10.75-28.1,96.92-61,115.26-63.58,30.6,1.64,34.37,11.26" fill="#8b86be" className="target-color"/><path d="M131.22,206.27a52.28,52.28,0,0,0,37.56,9.3c22.45-3,44.68-8.81,65.19-21.88s52.62-37.52,52.62-37.52a50.62,50.62,0,0,0,6.11-23.73c.14-13.93-12.48-17.83-24.18-15.88" fill="#8b86be" className="target-color"/><path d="M151.58,188.87s68.48-41,90.77-45.92,19.52,15.53,19.52,15.53-59,37.82-85.2,42S151.58,188.87,151.58,188.87Z" fill="#fbb03b"/><polyline points="161.41 169.37 161.41 171.69 199.65 193.71 212.97 187.33 213.7 185.62" fill="#603912"/><polygon points="161.41 169.37 200.51 191.73 213.7 185.62 173.14 161.79 161.41 169.37" fill="#249aa6"/><polyline points="207.79 143.78 207.79 146.1 246.03 168.12 259.35 161.74 260.08 160.03" fill="#603912"/><polygon points="207.79 143.78 246.89 166.14 260.08 160.03 219.52 136.2 207.79 143.78" fill="#249aa6"/><path d="M238.74,125.16l37,21.17,15.68-14.9s2.22-9.15-8.23-14.64S248.14,116.8,238.74,125.16Z" fill="#8b86be" className="target-color"/><polygon points="238.74 125.16 238.74 144.76 261.87 158.48 275.72 146.33 238.74 125.16" fill="#8b86be" className="target-color"/><path d="M238.74,125.16l37,21.17,15.68-14.9s2.22-9.15-8.23-14.64S248.14,116.8,238.74,125.16Z" opacity="0.29"/><polygon points="238.74 125.16 238.74 144.76 261.87 158.48 275.72 146.33 238.74 125.16" opacity="0.61"/><path d="M132.94,204.66s-5.85-8,9.3-23.91l34.42,19.78S140.73,208.46,132.94,204.66Z" fill="#8b86be" className="target-color"/><path d="M132.94,204.66s-5.85-8,9.3-23.91l34.42,19.78S140.73,208.46,132.94,204.66Z" opacity="0.29"/><path d="M194.82,167.69v-9.8l7,.82-.45,11.05S194.82,173,194.82,167.69Z" fill="#ff945f"/><path d="M222.33,145.49s2.3,11.55,2.77,11.9,6.31,1.09,6-.35-1.1-13-1.1-13" fill="#ff945f"/><path d="M238.62,159.93c-2.06-.79-6.41-3.67-7.54-5.72-3,1.17-4.6,1.65-7.46.56-.1,2.28-.28,5.58,1.43,6.21,2.77,1,15.39,10.54,16.65,5C242.31,163.27,241.7,161.1,238.62,159.93Z" fill="#0f2741"/><path d="M219,82.58s13.73,54.18,12,67.38c-.21,1.57-8.12,2.14-14,0,0,0-10.88-58.67-10.1-65.54" fill="#0f2741"/><path d="M201.86,86.77s-3.83,43-5.7,48.41c-1.54,4.48-4.26,21.72-5.17,27.68a13.07,13.07,0,0,0,11.54,1.41c2.26-8,7.63-27.14,9-31.61,1.71-5.7,4.68-36,4.68-36Z" fill="#0f2741"/><path d="M221.08,89c.54-9.55,1.17-28.55-2.24-29.38-4.57-1.11-17.34,4.51-20.2,8.37-2,2.72.75,16.37,2.57,24.22C207.57,93.81,215.68,92.82,221.08,89Z" fill="#b3b3b3"/><path d="M213.79,55.9a8.46,8.46,0,0,0,3.15-5.08c.61-3.32-2.85-4.91-4.7-4.91,0,0,1.07.76,1.19,1.21,0,0-1.39-1.91-5.07-1.22s-.37,1.33-.37,1.33-3.7-.57-5.76,0-3.09,1.54-2.77,1.89,1.15.05,1.48.29-1.91,1.53-2,2.49,1.6,1.6,1.48,1.82.61,1.19.52,1.54.78,6.07,6.53,5.79" fill="#a0421d"/><path d="M214.41,52.46a.41.41,0,0,0-.15-.1.41.41,0,0,0-.18,0,14.91,14.91,0,0,1-3.26.36c-1.09-.07-2.16-.3-3.24-.36-.46,0-.88.64-1.18,1.66a48.5,48.5,0,0,0-.28,5.24,5,5,0,0,0,3.63,4.06c1.92.48,3.21-.54,3.9-2.15a17.24,17.24,0,0,0,1.21-6.71l0-1.12A1.16,1.16,0,0,0,214.41,52.46Z" fill="#ffb288"/><path d="M213.9,51.52s-1.2,9.11-7.42,9.5c-3.07.19-4.24-7.42-4.24-7.42S207,49,210.24,49A3.41,3.41,0,0,1,213.9,51.52Z" fill="#a0421d"/><path d="M212.13,57.47c-.08-.44,1-2.23-1.63-1.25s-1.58,3.33,0,3.8" fill="#ffb288"/><path d="M199.61,66.93s-4.46,3.24-2.89,10.84c1.62,7.87,15.07,9.67,20.46,6.86,0,0-4.15-13.46-5.07-13.86" fill="#b3b3b3"/><path d="M216.85,59.49s29.35-10,30.57-8.29c0,0,2.52,4.85.88,8.26,0,0-26.71,13.56-31.44,12.43" fill="#b3b3b3"/><path d="M194.86,167.81s-.4,10.39,1.36,13.36,9.89,1.41,9.71-1.36-3.2-6.61-3.46-9.59-1.25-2.41-1.25-2.41S199.36,171.73,194.86,167.81Z" fill="#0f2741"/><path d="M258.53,46.56c-.53,0-3.27.75-2.92,1.58a1.64,1.64,0,0,0,1.45.83s-1.85.76-1.48,1.59a2,2,0,0,0,1.45,1s-2.15,1-1.42,1.64l.73.63s-.91,1-.15,1.59,3.19.38,3.49-.76a3.89,3.89,0,0,0,0-2s1.19-.75.78-1.47l-.41-.73s1.21-1.14.49-1.59l-.72-.46s.83-1.19.38-1.81S258.53,46.56,258.53,46.56Z" fill="#ffb288"/><path d="M218.16,55l47-16.1L267.26,55l-48.42,4.62S215.61,58,218.16,55Z" fill="#0f2741"/><ellipse cx="266.34" cy="47.08" rx="6.26" ry="8.18" fill="#0f2741"/><path d="M216.84,62s-.09-2.13,1.09-2.93,1.75,1.23,1.75,1.23l.53-3.63s1.16-.82,3.42,1.86a28.5,28.5,0,0,1-1.7,4.94c-.68,1-3.89,3-3.89,3l-1.85-1.36Z" fill="#ffb288"/><path d="M199.14,82.23s5,4.36,11.5,3.38,9.26-12.37,9.26-12.37S218,84.18,212.19,86.77s-12.34-.89-12.34-.89Z" fill="#39444f"/><path d="M220.71,69.89l-7.49-4.4a.51.51,0,0,0-.73.3c-.87,2.95-4.12,10.33-8.19,6.89-.49-.41-1.2.29-.71.71,1.7,1.44,3.31,2.14,5.15.55a16.25,16.25,0,0,0,4.52-7.27l7,4.08A.5.5,0,0,0,220.71,69.89Z" fill="#39444f"/><path d="M228.55,51.43s2.53.47,2.84,2,.16,4.29-1.42,5.15l3.56-.34s2.54-5-1.86-7.85Z" fill="#2f506d"/><path d="M260.77,40.4c.34-.12,6.8,1,6.49,7.24s-4.34,7.77-4.34,7.77l3.42-.14a11.58,11.58,0,0,0,3.05-8.7c-.24-5.65-6.36-7.12-6.36-7.12Z" fill="#2f506d"/><ellipse cx="218.34" cy="57.14" rx="0.82" ry="1.2" fill="#34b5e2"/><path d="M248.85,44.48s.26-1.32,1.2-1.54a.84.84,0,0,1,1,.77s.32-1.53.83-1.53a.71.71,0,0,1,.65.51s.43-.87,1-.87.88.73.88.73Z" fill="#ffb288"/><path d="M212.08,45.6s2.17-.78,3,1.07-2.33,6.83-6.79,9.07-8,2.57-8.84,1.69.4-3.19.4-3.19" fill="#0f2741"/><path d="M210.61,44.17l3,2.87s-2.15,5.29-7.14,7.2-6,1.44-6,1.44l-1.88-4.79" fill="#03090f"/><path d="M208.29,42.86s3.25.33,2.3,2.91-6.76,7.84-11,6.28S204.64,42.46,208.29,42.86Z" fill="#0f2741"/><path d="M209.15,62.93a5.73,5.73,0,0,1-2.21-1.49.68.68,0,0,1-.18-.32l-.13-.12-1-.12v3.27s1.2,2.13,5.1,1.28l-.15-2.25A3.56,3.56,0,0,1,209.15,62.93Z" fill="#e5895a"/><path d="M328.87,168.54c.1-.36.22-.72.33-1.08a22.67,22.67,0,0,0-3.5-4.23.73.73,0,0,1-.27-.58l-2.6-1.23-39.4,21.34,7.42,8.17,38.07-21.87A.74.74,0,0,1,328.87,168.54Z" opacity="0.52" fill="url(#linear-gradient-2)"/><path d="M321.23,162.94a3.74,3.74,0,0,0,3.21,1c2.34-28.62-23.18-30.05-23.18-30.05C321.29,140.78,321.68,157.44,321.23,162.94Z" fill="#009245"/><path d="M325.34,168.49c-1.65-.52,0-39.29,0-39.29l3.42,39.29S328.39,169.45,325.34,168.49Z" fill="#009245"/><path d="M327.57,167.29c.24-1-2.2-25.44,13.91-31.39a51.7,51.7,0,0,0-11.23,31.39" fill="#009245"/><path d="M119.34,181.38c.1-.36.22-.72.33-1.08a22.67,22.67,0,0,0-3.5-4.23.73.73,0,0,1-.27-.58l-2.6-1.23L73.89,195.6l7.42,8.17,38.07-21.87A.74.74,0,0,1,119.34,181.38Z" opacity="0.52" fill="url(#linear-gradient-3)"/><path d="M111.7,175.78a3.74,3.74,0,0,0,3.21,1c2.34-28.62-23.18-30.05-23.18-30.05C111.76,153.62,112.15,170.28,111.7,175.78Z" fill="#009245"/><path d="M115.81,181.33c-1.65-.52,0-39.29,0-39.29l3.42,39.29S118.86,182.29,115.81,181.33Z" fill="#009245"/><path d="M118,180.12c.24-1-2.2-25.44,13.91-31.39a51.7,51.7,0,0,0-11.23,31.39" fill="#009245"/></svg>