<svg width="20" height="20" viewBox="0 0 20 20" fill="none" xmlns="http://www.w3.org/2000/svg">
<path d="M18.2473 9.03333C18.1032 9.04445 17.9688 9.1 17.8727 9.22222L16.9124 10.3333L18.8812 12.5556L19.8415 11.4444C20.0528 11.2111 20.0528 10.8222 19.8415 10.5889L18.6507 9.22222C18.5547 9.10706 18.4239 9.03936 18.2857 9.03333M16.3649 10.9778L10.5642 17.7111V20H12.5426L18.3625 13.2556M17.2869 0H1.92077C1.41135 0 0.922794 0.234126 0.56258 0.650874C0.202366 1.06762 0 1.63285 0 2.22222V15.5556C0 16.1449 0.202366 16.7102 0.56258 17.1269C0.922794 17.5437 1.41135 17.7778 1.92077 17.7778H8.64346V16.7889L16.557 7.65556C17.0084 7.11111 17.6327 6.81111 18.2857 6.81111C18.6122 6.81111 18.9388 6.87778 19.2461 7.02222V2.22222C19.2461 0.977778 18.3625 0 17.2869 0ZM17.2869 4.44444L9.60384 10L1.92077 4.44444V2.22222L9.60384 7.77778L17.2869 2.22222" fill="#0D2F4F"/>
</svg>
