<svg width="80" height="80" viewBox="0 0 80 80" fill="none" xmlns="http://www.w3.org/2000/svg">
<path d="M79.5 40C79.5 61.8153 61.8153 79.5 40 79.5C18.1848 79.5 0.5 61.8153 0.5 40C0.5 18.1848 18.1848 0.5 40 0.5C61.8153 0.5 79.5 18.1848 79.5 40Z" fill="white" stroke="#E7E7E7"/>
<path d="M40 33.3333C39.558 33.3333 39.1341 33.5089 38.8215 33.8215C38.5089 34.134 38.3333 34.558 38.3333 35C38.3333 35.442 38.5089 35.8659 38.8215 36.1785C39.1341 36.4911 39.558 36.6667 40 36.6667C40.8841 36.6667 41.7319 37.0179 42.357 37.643C42.9821 38.2681 43.3333 39.1159 43.3333 40C43.3333 40.8841 42.9821 41.7319 42.357 42.357C41.7319 42.9821 40.8841 43.3333 40 43.3333C39.558 43.3333 39.1341 43.5089 38.8215 43.8215C38.5089 44.134 38.3333 44.558 38.3333 45C38.3333 45.442 38.5089 45.8659 38.8215 46.1785C39.1341 46.4911 39.558 46.6667 40 46.6667C41.7681 46.6667 43.4638 45.9643 44.714 44.714C45.9643 43.4638 46.6667 41.7681 46.6667 40C46.6667 38.2319 45.9643 36.5362 44.714 35.286C43.4638 34.0357 41.7681 33.3333 40 33.3333ZM56.1833 38.8167L52.2667 35V29.4C52.2667 28.958 52.0911 28.534 51.7785 28.2215C51.466 27.9089 51.042 27.7333 50.6 27.7333H45.0833L41.1833 23.8167C41.0284 23.6605 40.8441 23.5365 40.641 23.4518C40.4379 23.3672 40.22 23.3237 40 23.3237C39.78 23.3237 39.5621 23.3672 39.359 23.4518C39.1559 23.5365 38.9716 23.6605 38.8167 23.8167L35 27.7333H29.4C28.958 27.7333 28.534 27.9089 28.2215 28.2215C27.9089 28.534 27.7333 28.958 27.7333 29.4V35L23.8167 38.8167C23.6605 38.9716 23.5365 39.1559 23.4518 39.359C23.3672 39.5621 23.3237 39.78 23.3237 40C23.3237 40.22 23.3672 40.4379 23.4518 40.641C23.5365 40.8441 23.6605 41.0284 23.8167 41.1833L27.7333 45.0833V50.6C27.7333 51.042 27.9089 51.4659 28.2215 51.7785C28.534 52.0911 28.958 52.2667 29.4 52.2667H35L38.9 56.1833C39.0549 56.3395 39.2393 56.4635 39.4424 56.5481C39.6455 56.6328 39.8633 56.6763 40.0833 56.6763C40.3034 56.6763 40.5212 56.6328 40.7243 56.5481C40.9274 56.4635 41.1117 56.3395 41.2667 56.1833L45.1667 52.2667H50.6833C51.1254 52.2667 51.5493 52.0911 51.8618 51.7785C52.1744 51.4659 52.35 51.042 52.35 50.6V45.0833L56.2667 41.1833C56.4176 41.023 56.5352 40.8343 56.6127 40.6282C56.6902 40.4221 56.7262 40.2027 56.7184 39.9826C56.7107 39.7626 56.6594 39.5462 56.5676 39.3461C56.4757 39.146 56.3451 38.966 56.1833 38.8167ZM49.4333 43.2167C49.2759 43.371 49.1506 43.5551 49.0647 43.7582C48.9789 43.9613 48.9343 44.1795 48.9333 44.4V48.9333H44.4C44.1795 48.9342 43.9613 48.9789 43.7582 49.0647C43.5551 49.1506 43.371 49.2759 43.2167 49.4333L40 52.65L36.7833 49.4333C36.629 49.2759 36.4449 49.1506 36.2418 49.0647C36.0387 48.9789 35.8205 48.9342 35.6 48.9333H31.0667V44.4C31.0658 44.1795 31.0211 43.9613 30.9353 43.7582C30.8494 43.5551 30.7241 43.371 30.5667 43.2167L27.35 40L30.5667 36.7833C30.7241 36.629 30.8494 36.4449 30.9353 36.2418C31.0211 36.0386 31.0658 35.8205 31.0667 35.6V31.0667H35.6C35.8205 31.0658 36.0387 31.0211 36.2418 30.9353C36.4449 30.8494 36.629 30.7241 36.7833 30.5667L40 27.35L43.2167 30.5667C43.371 30.7241 43.5551 30.8494 43.7582 30.9353C43.9613 31.0211 44.1795 31.0658 44.4 31.0667H48.9333V35.6C48.9343 35.8205 48.9789 36.0386 49.0647 36.2418C49.1506 36.4449 49.2759 36.629 49.4333 36.7833L52.65 40L49.4333 43.2167Z" fill="#3D3D3D"/>
</svg>
