<svg id="Layer_2" data-name="Layer 2" xmlns="http://www.w3.org/2000/svg" xmlns:xlink="http://www.w3.org/1999/xlink" viewBox="0 0 400 300" data-imageid="happy-face-isometric" imageName="Happy face" className="illustrations_image" style="width: 158px;"><defs><linearGradient id="linear-gradient" x1="84.56" y1="194.33" x2="99" y2="183.22" gradientUnits="userSpaceOnUse"><stop offset="0" stop-opacity="0"/><stop offset="1" stop-color="#3f1e00"/></linearGradient><linearGradient id="linear-gradient-2" x1="192.31" y1="247.35" x2="218.03" y2="228.4" xlink:href="#linear-gradient"/></defs><title>PP</title><path d="M194.73,278.19,29,180.22c-5.28-3-9.8-7.83-4.66-11L190.67,73.33c2.5-1.55,6.29-2.56,8.82-1.09l174,101c5.28,3.06,6.22,11.63.94,14.69L216.58,278A22,22,0,0,1,194.73,278.19Z" fill="#9ac0ff"/><path d="M99.09,203.29l7.75-20.15L95,174.46l-25.2,11.07C80.69,193.31,87.56,196.55,99.09,203.29Z" opacity="0.32" fill="url(#linear-gradient)"/><path d="M205.86,257l33.21-25.31-23-13.85L177,239C187.82,246.77,194.33,250.28,205.86,257Z" opacity="0.32" fill="url(#linear-gradient-2)"/><path d="M245.56,78.66s1.88-5.81,1.73-8.32-1.55-6.16,0-6.93,3.44,4.54,3.44,4.54,4.71-9.86,6.12-9.23a3.09,3.09,0,0,1,1.49,2.55s1.51-2.48,2.09-1.45,0,3.08,0,3.08,1.4.25,1.56,1.15-2,4.62-2,4.62A1.42,1.42,0,0,1,261.26,70c.08,1.15-8.87,10.07-8.87,10.07" fill="#fbc76f"/><path d="M222,77.16s7.87,6.51,10.92,11.49,13-13.12,13-13.12,6.93,2.28,9.14,3.22-11.2,31.65-20.46,30.6-8.92-2.87-8.92-2.87" fill="#8b86be" className="target-color"/><path d="M226.51,204c-.16.7-1.93,8.72,0,11.33,2.08,2.81,5.41,4.32,8.08,6.57,1.39,1.17,6.6,8.19,2.58,8.95-2.79.52-11.16-2.09-16.39-5.93s-8.86-4.57-9.07-6.58,3.21-18.26,3.21-18.26" fill="#363942"/><path d="M222.73,216.18c.26-3.61.44-7.63.46-9.72A31.32,31.32,0,0,0,222.73,216.18Z" fill="#363942"/><path d="M198.38,219.38s2.57,7.09,4.2,8.73,8.33,8.46,6.87,11.83-13,.59-15.88-4.12-4.34-4.77-5.41-6.74S186,215.51,186,215.51" fill="#363942"/><path d="M225.18,120.51s3.29,85.81.62,87.77-12.27,4.86-17,1.32l4.05-37.15-11.15,52.18s-13.37,2.17-17.5-2.91c-.8-1,.3-5.18.43-6.28.57-5,1.25-9.91,1.94-14.85,1.84-13.23,3.82-26.44,5.83-39.64q1.06-7,2.13-14c1.08-7,2.43-14.64,6.12-20.92,2.54-4.33,6.08-11.65,11.09-13.6" fill="#ff7f5c"/><path d="M200.82,125.94c8.46,1.42,17.05.44,24.47-4.09,1.15-13.14,2-26.27.61-39.46a1.28,1.28,0,0,1,0-.31A11.86,11.86,0,0,0,222,77.16c-4.3-2.9-11.33-1.48-15.49.71a15.41,15.41,0,0,0-2.8,1.95C199.13,94.84,201,110.45,200.82,125.94Z" fill="#8b86be" className="target-color"/><path d="M217.17,71l-7.64-1.6-.64,8.43s5.76,5.89,11.44,5.08l-1.62-7A22.61,22.61,0,0,1,217.17,71Z" fill="#fcbb5b"/><path d="M217.34,71.75a33.39,33.39,0,0,0-7.81-2.39l-.2,4.61s5.71,4.19,9.11,1.21A22.48,22.48,0,0,1,217.34,71.75Z" fill="#db9231"/><path d="M222.67,61.79s5.09-3.09,4.07-5.92-5-3.59-5-3.59-.62-3.61-3.56-4-8,2-8,2-4.4-.41-6,2.06-1,6.88-1,6.88,3.68,11.12,5.3,11.4,5.69-3.81,5.69-3.81" fill="#204a51"/><path d="M222.74,58.29S223.94,73,217.68,74s-8.92-7.58-8.92-7.58-3.8-3.53-1.41-4.32,2.74.54,2.74.54-2.33-5.31.12-5.32S219.67,61.31,222.74,58.29Z" fill="#fbc76f"/><path d="M216.42,136.95A763.49,763.49,0,0,1,201.57,217c-.2.83,1.06,1.29,1.26.45a766.88,766.88,0,0,0,14.93-80.4C217.87,136.2,216.54,136.1,216.42,136.95Z" fill="#363942"/><path d="M208.89,75.43s3,2.81,5,3l3,1.65,2.51,2.61V79.06s-.75-3.27-.63-3.24,2.72,4.2,2.72,4.2L224,84.2l-3.65-.36-1.58,2.67s-9.07-4-12.23-8.64Z" fill="#fff"/><path d="M257.92,60.7q-2.45,4.15-4.67,8.43c-.19.37.36.69.55.32Q256,65.17,258.48,61A.32.32,0,0,0,257.92,60.7Z" fill="#204a51"/><path d="M260,62.64l-4.26,7.79c-.2.36.36.69.55.32L260.54,63C260.74,62.6,260.18,62.27,260,62.64Z" fill="#204a51"/><path d="M259.68,68.57a19.52,19.52,0,0,0-2.23,3.17.32.32,0,0,0,.55.32,18.68,18.68,0,0,1,2.13-3C260.4,68.71,260,68.25,259.68,68.57Z" fill="#204a51"/><path d="M251.36,68.88c-.36-.19-.69.36-.32.55,2.13,1.14,3,3.62,2.95,5.95a.32.32,0,0,0,.64,0C254.69,72.82,253.7,70.12,251.36,68.88Z" fill="#204a51"/><path d="M170,83.35l-.58-1a.94.94,0,0,0,.39-1.2c-.5-1.12-1-2.24-1.53-3.35a.9.9,0,0,0,0-.41,25.06,25.06,0,0,1-.85-7.69c.23-2.08.85-4.08,1-6.16.07-.74-.78-1-1.33-.76a2.15,2.15,0,0,0-1,1.11A7.19,7.19,0,0,0,164.86,67a4.81,4.81,0,0,0-.36-1.41q-.21-.85-.42-1.7a12.39,12.39,0,0,0-.89-2.6c-.39-.78-1.28-1.14-1.73-.63-.68.77,0,2.17.11,3.07s.27,1.69.5,2.6c-.35-.84-1.06-2.3-1.52-3.32-.36-.78-1.37-3.32-2.49-3s-.59,2.08-.28,2.9l.87,2.36c.26.7.55,1.62.85,2.26,0,0-1.18-1.72-1.76-2.63-.47-.72-1-1.78-2-1.45-.68.21-.64,1.23-.32,1.83.85,1.6,1.79,3.15,2.78,4.66-.63-.59-1.25-1.2-1.9-1.77a.92.92,0,0,0-1.5.77.76.76,0,0,0,.14.47L163,81.1a17.1,17.1,0,0,0,3.3,5c.78.82,2-.42,1.25-1.25l-.11-.13a.88.88,0,0,0,.08-.13.93.93,0,0,0,.62-.48l.06,0a.89.89,0,0,0,.28.13A.87.87,0,0,0,170,83.35Z" fill="#fbc76f"/><path d="M163.7,67.69a5.33,5.33,0,0,0-2,4.63c0,.4.66.4.62,0a4.76,4.76,0,0,1,1.81-4.19C164.46,67.88,164,67.44,163.7,67.69Z" fill="#42342d"/><path d="M162.84,66.73q-.67-2.46-1.13-5c-.07-.39-.67-.23-.6.17q.46,2.51,1.13,5A.31.31,0,0,0,162.84,66.73Z" fill="#42342d"/><path d="M160.21,68.11a35.73,35.73,0,0,1-2-5.65.31.31,0,0,0-.6.17,36.71,36.71,0,0,0,2.11,5.8C159.84,68.79,160.38,68.47,160.21,68.11Z" fill="#42342d"/><path d="M159.24,70.56a23.46,23.46,0,0,1-3.34-5.05c-.18-.36-.72,0-.54.31A24.09,24.09,0,0,0,158.8,71C159.07,71.3,159.5,70.86,159.24,70.56Z" fill="#42342d"/><path d="M207.87,77.84a22,22,0,0,0-10.42,3.23c-2.38,1.56-3.76,4.09-6.34,5.38-3.47,1.74-8.55,1.72-11.41-1.22A63.41,63.41,0,0,1,175.37,80c-1.07-1.37-5.46-8.49-7.78-7.63-2.71,1-6.61,4.82-6.78,7s11.29,24.74,21.41,26.33a27,27,0,0,0,18.09-4" fill="#8b86be" className="target-color"/><path d="M90.56,145.81a34.15,34.15,0,0,0-7.13,23.49C84.38,183,92.1,187,92.1,187l9.19.51s10.93-3.57,9.5-21.4c-1.34-16.74-6.78-20.68-6.78-20.68" fill="#8b86be" className="target-color"/><ellipse cx="97.33" cy="145.81" rx="6.77" ry="2.39" fill="#003b94"/><ellipse cx="97.33" cy="185.53" rx="6.77" ry="2.39" fill="#8b86be" className="target-color"/><path d="M94.55,146.53l-8.19-47c-.18-1-1.74-.59-1.56.43L93,147C93.17,148,94.73,147.55,94.55,146.53Z" fill="#007f68"/><path d="M96,146.69a2,2,0,0,1,.75,0,1.69,1.69,0,0,1,.84.51q1-19.68.35-39.39c0-1-1.65-1-1.62,0Q97,127.26,96,146.69Z" fill="#007f68"/><path d="M114.44,101.1a432,432,0,0,0-15.82,45.14.81.81,0,0,0,1.56.43A431.94,431.94,0,0,1,116,101.53C116.4,100.57,114.83,100.16,114.44,101.1Z" fill="#007f68"/><path d="M88.11,118.93s-.88-.11-4.75-4.18,1-7.12-1.22-11.7.92-10.58,1.63-15.15a21.22,21.22,0,0,0,3.39,9c2.91,4.17,4.54,7.93,4.23,13.22a46.81,46.81,0,0,1-1.71,9.87" fill="#007f68"/><path d="M96.4,126.18s-.83-.32-3.59-5.2,2.72-6.66,1.66-11.64,3.46-10,5.26-14.3a21.22,21.22,0,0,0,1.12,9.51c1.81,4.75,2.47,8.8.89,13.85a46.81,46.81,0,0,1-4.06,9.15" fill="#007f68"/><path d="M107.93,117.72s-.75-.48-2.45-5.83,4-6,4-11.06,5.44-9.12,8.08-12.92a21.22,21.22,0,0,0-.85,9.53c.8,5,.62,9.12-2,13.74a46.81,46.81,0,0,1-5.85,8.13" fill="#007f68"/><g style="isolation:isolate"><path d="M214.36,56.45l10.32,3.92h0l-1.2-.46-1.27-.48-1.32-.5-1.35-.51-1.35-.51-1.32-.5-1.27-.48-1.2-.46,10.29,3.91h0l-10.33-3.92v0l9.13,3.47Z" fill="#ffd900"/><path d="M214.34,56.46l10.33,3.92a12.36,12.36,0,0,1-2.94,6.53L211.41,63A12.36,12.36,0,0,0,214.34,56.46Z" fill="#ffd900"/><path d="M218.24,45a4.36,4.36,0,0,1,1.21.46l.63.24,1.31.5,2,.77,5.17,2a.64.64,0,0,1-.42,0L217.82,45A.64.64,0,0,0,218.24,45Z" fill="#ffd900"/><path d="M214.35,56.44a26.24,26.24,0,0,0,.51-7.43l10.33,3.92a26.24,26.24,0,0,1-.51,7.43l-.15-.06-.15-.06-.15-.06-.15-.06-.15-.06-.15-.06-.15-.06-.16-.06-1.12-.42L221.2,59,220,58.6l-1.19-.45-1.18-.45-1.15-.44-1.11-.42Z" fill="#ffd900"/><path d="M218.46,69.53l-10.33-3.92.05,0,10.33,3.92Z"/><path d="M208.13,65.61A9.93,9.93,0,0,0,211.41,63l10.33,3.92a9.93,9.93,0,0,1-3.28,2.62Z" fill="#ffd900"/><path d="M208.18,65.58A12,12,0,0,0,211.41,63l10.33,3.92a12,12,0,0,1-3.22,2.59Z"/><path d="M214.15,70.49l-10.33-3.92a6.34,6.34,0,0,0,2.81-.28,7.3,7.3,0,0,0,1.51-.67l10.33,3.92a7.3,7.3,0,0,1-1.51.67A6.34,6.34,0,0,1,214.15,70.49Z" fill="#ffd900"/><path d="M213,70.2l-10.33-3.92a5.2,5.2,0,0,0,1.12.29l10.33,3.92A5.2,5.2,0,0,1,213,70.2Z"/><path d="M203.82,66.57A11.13,11.13,0,0,1,205,67l1.28.49,2.68,1,5.17,2a4.65,4.65,0,0,1-1.17-.27l-10.33-3.92A4.65,4.65,0,0,0,203.82,66.57Z" fill="#ffd900"/><path d="M221.59,60.87l-10.33-3.92a10.26,10.26,0,0,1,3.09-.5l10.33,3.92A10.26,10.26,0,0,0,221.59,60.87Z" fill="#f15a24"/><path d="M212.46,69.95,202.13,66c.15-.36,3-7.12,9.13-9.08l10.33,3.92C215.49,62.83,212.61,69.59,212.46,69.95Z" fill="#f15a24"/><path d="M202.1,66c-4.26-2.34-3.23-11.37-3.17-11.9l10.33,3.92c-.06.53-1.09,9.55,3.17,11.9l-1.17-.44L210,69.05l-1.29-.49-1.31-.5-1.31-.5-1.29-.49-1.24-.47-1.17-.44Z"/><path d="M225.19,52.94a26.24,26.24,0,0,1-.52,7.45,9.89,9.89,0,0,0-3.09.49c-6.1,2-9,8.73-9.13,9.08a5.19,5.19,0,0,0,1.69.54c-6.22-.65-5-11.83-4.89-12.42Z"/><path d="M221.59,60.87a10.26,10.26,0,0,1,3.09-.5,12.36,12.36,0,0,1-2.94,6.54,12,12,0,0,1-3.22,2.59l-.05,0a7.3,7.3,0,0,1-1.51.67,6.34,6.34,0,0,1-2.81.28,5.19,5.19,0,0,1-1.69-.54C212.61,69.59,215.49,62.83,221.59,60.87Z" fill="#f15a24"/><path d="M218.46,69.53l.05,0a12,12,0,0,0,3.22-2.59A9.93,9.93,0,0,1,218.46,69.53Z"/><path d="M219,43.8c0-1.69-.7-3.36-1.85-3.8l10.33,3.92c1.16.44,1.83,2.11,1.85,3.8a1.25,1.25,0,0,1-.78,1.23L218.24,45A1.25,1.25,0,0,0,219,43.8Z" fill="#ffd900"/><path d="M228.15,49,217.82,45c-.22-.08-.38-.31-.38-.72,0-.87-.36-2-1-2.27L226.75,46c.66.25,1,1.4,1,2.27C227.78,48.65,227.94,48.88,228.15,49Z"/><path d="M217.17,40l10.33,3.92a1.84,1.84,0,0,0-1.25,0L215.92,40A1.84,1.84,0,0,1,217.17,40Z"/><path d="M215.89,42a.78.78,0,0,1,.53,0L226.75,46a.78.78,0,0,0-.53,0l-.09,0c-1.12.49-1.56,2.27-1.64,3.51L223.28,49,222,48.56l-1.33-.5-1.35-.51L218,47l-1.33-.5L215.36,46l-1.21-.46c.09-1.24.52-3,1.64-3.51Z" fill="#ffd900"/><path d="M213.29,46.84a1.4,1.4,0,0,0,.86-1.26l10.33,3.92a1.4,1.4,0,0,1-.86,1.26h0l-9.13-3.47-1.21-.46,10.33,3.92a.59.59,0,0,1-.39,0L212.9,46.84A.59.59,0,0,0,213.29,46.84Z" fill="#ffd900"/><path d="M223.23,50.76,212.9,46.84c-.21-.08-.36-.32-.33-.75.17-2.39,1.18-5.29,3.25-6.06l.1,0,10.33,3.92-.1,0c-2.07.77-3.08,3.67-3.25,6.06C222.88,50.44,223,50.68,223.23,50.76Z"/><path d="M226.26,43.92c1.91-.62,3.07,1.58,3.1,3.8a1.25,1.25,0,0,1-.78,1.23c-.4.13-.8-.07-.8-.72,0-1.08-.55-2.6-1.55-2.28l-.09,0c-1.12.49-1.56,2.27-1.64,3.51a1.4,1.4,0,0,1-.86,1.26c-.39.13-.76-.08-.72-.75.17-2.39,1.18-5.29,3.25-6.06Z"/><path d="M213,70.2l-10.33-3.92a5.25,5.25,0,0,1-.56-.25l10.33,3.92A5.25,5.25,0,0,0,213,70.2Z" fill="#f15a24"/><path d="M202.64,66.29a4.24,4.24,0,0,1-.53-.24L212.45,70a4.24,4.24,0,0,0,.53.24Z"/><path d="M202.1,66,212.44,70h0l-1.21-.46L210,69l-1.33-.5L207.28,68l-1.35-.51L204.6,67l-1.28-.49L202.11,66Z"/><polygon points="209.26 58.07 198.93 54.15 214.86 49.01 225.19 52.94 209.26 58.07"/><path d="M214.92,30.38l10.33,3.92a12.37,12.37,0,0,0-8.3,0l-10.33-3.92A12.37,12.37,0,0,1,214.92,30.38Z" fill="#ffb600"/><path d="M199.91,50.17c-.08-1.77-.67-3.52-1.87-4l10.33,3.92c1.2.46,1.79,2.21,1.87,4a1.18,1.18,0,0,1-.74,1.22h0l-1.05-.4-1.11-.42-1.15-.44L205,53.61l-1.19-.45-1.18-.45-1.16-.44-1.12-.42-.16-.06-.15-.06-.15-.06-.15-.06-.15-.06-.15-.06-.15-.06-.15-.06,10.33,3.92a.66.66,0,0,1-.44,0l-10.33-3.92a.66.66,0,0,0,.44,0A1.18,1.18,0,0,0,199.91,50.17Z" fill="#ffd900"/><path d="M209.07,55.31l-10.33-3.92a.72.72,0,0,1-.41-.71c0-1-.32-2.17-1-2.44l10.33,3.92c.71.27,1,1.47,1,2.44A.72.72,0,0,0,209.07,55.31Z"/><path d="M198,46.19l10.33,3.92a2,2,0,0,0-1.26,0l-.1,0-10.33-3.92.1,0A2,2,0,0,1,198,46.19Z"/><path d="M196.76,48.2a.94.94,0,0,1,.54,0l10.33,3.92a.94.94,0,0,0-.54,0l-.09,0c-1,.32-1.57,2.2-1.62,3.3L204.18,55l-1.28-.49-1.33-.5-1.35-.51L198.87,53l-1.33-.5L196.26,52l-1.21-.46c0-1.1.62-3,1.62-3.3Z" fill="#ffd900"/><path d="M194.23,52.77a1.33,1.33,0,0,0,.83-1.25l10.33,3.92a1.33,1.33,0,0,1-.83,1.25l-1.05-.4-1.11-.42-1.15-.44L200.07,55l-1.19-.45-1.18-.45-1.16-.44-1.12-.42-.16-.06-.15-.06-.15-.06-.15-.06-.15-.06-.15-.06-.15-.06-.15-.06,10.33,3.92a.61.61,0,0,1-.4,0l-10.33-3.92A.61.61,0,0,0,194.23,52.77Z" fill="#ffd900"/><path d="M204.16,56.7l-10.33-3.92c-.21-.08-.37-.32-.35-.74.09-2.26,1.31-5.23,3.21-5.84L207,50.12c-1.9.61-3.13,3.58-3.21,5.84C203.79,56.38,203.94,56.62,204.16,56.7Z"/><path d="M207,50.12l.1,0c2.07-.57,3,1.7,3.13,4a1.18,1.18,0,0,1-.74,1.22c-.4.13-.81-.07-.84-.71-.06-1.19-.45-2.71-1.57-2.47l-.09,0c-1,.32-1.57,2.2-1.62,3.3a1.33,1.33,0,0,1-.83,1.25c-.39.13-.78-.08-.75-.74C203.89,53.7,205.12,50.73,207,50.12Z"/><path d="M208.09,79.58l-10.33-3.92c-5.44-2.06-9.07-8.36-9-17,.16-12.52,8.14-25.2,17.82-28.32L217,34.28c-9.69,3.12-17.67,15.8-17.82,28.32C199,71.22,202.66,77.52,208.09,79.58Z" fill="#ffb600"/><path d="M217,34.28c9.69-3.12,17.42,4.49,17.26,17s-8.14,25.2-17.83,28.33-17.41-4.49-17.26-17S207.27,37.4,217,34.28Zm7.72,26.11a26.24,26.24,0,0,0,.52-7.45l-15.93,5.13c-.07.59-1.34,11.77,4.89,12.42a6.34,6.34,0,0,0,2.81-.28,7.3,7.3,0,0,0,1.51-.67,9.93,9.93,0,0,0,3.28-2.62,12.36,12.36,0,0,0,2.94-6.53M228.58,49a1.25,1.25,0,0,0,.78-1.23c0-2.23-1.19-4.42-3.1-3.8l-.1,0c-2.07.77-3.08,3.67-3.25,6.06,0,.67.32.88.72.75a1.4,1.4,0,0,0,.86-1.26c.09-1.24.52-3,1.64-3.51l.09,0c1-.32,1.54,1.2,1.55,2.28,0,.65.41.85.8.72M208.66,54.6c0,.64.44.84.84.71a1.18,1.18,0,0,0,.74-1.22c-.11-2.3-1.06-4.57-3.13-4l-.1,0c-1.9.61-3.13,3.58-3.21,5.84,0,.66.36.87.75.74a1.33,1.33,0,0,0,.83-1.25c0-1.1.62-3,1.62-3.3l.09,0c1.12-.24,1.51,1.28,1.57,2.47" fill="#ffd900"/></g></svg>