<svg id="Layer_2" data-name="Layer 2" xmlns="http://www.w3.org/2000/svg" viewBox="0 0 400 300" data-imageid="alien-isometric-c8998" imageName="Alien" class="illustrations_image" style="width: 158px;"><title>cc</title><path d="M210.57,277,385.22,173.79c5.56-3.12,10.33-8.25,4.91-11.61l-175.27-101c-2.63-1.63-6.62-2.7-9.3-1.14L22.23,166.42c-5.56,3.23-6.56,12.25-1,15.48l166.32,94.94A23.22,23.22,0,0,0,210.57,277Z" fill="#adce46"/><ellipse cx="182.58" cy="169.62" rx="127.1" ry="63.02" fill="#798e21"/><ellipse cx="205.02" cy="151.4" rx="128.18" ry="67.3" fill="#68e1fd" class="target-color"/><ellipse cx="205.02" cy="151.4" rx="128.18" ry="67.3" fill="#3a3a6c" opacity="0.38"/><ellipse cx="205.02" cy="143" rx="128.18" ry="67.3" fill="#68e1fd" class="target-color"/><circle cx="103.95" cy="131.28" r="7.08" fill="#ffcf49"/><circle cx="305.16" cy="131.28" r="7.08" fill="#ffcf49"/><circle cx="118.12" cy="164.39" r="7.08" fill="#ffcf49"/><circle cx="149.2" cy="179.81" r="7.08" fill="#ffcf49"/><circle cx="197.93" cy="189.73" r="7.08" fill="#ffcf49"/><circle cx="244.59" cy="182.64" r="7.08" fill="#ffcf49"/><circle cx="281.5" cy="160.58" r="7.08" fill="#ffcf49"/><circle cx="281.5" cy="105.5" r="7.08" fill="#ffcf49"/><circle cx="130.4" cy="105.5" r="7.08" fill="#ffcf49"/><path d="M127.7,134.23S129.61,55.43,205,55.4c77.15,0,75.64,76.28,75.64,76.28s-3.36,41-77.23,41S127.7,134.23,127.7,134.23Z" fill="#71e3d1"/><path d="M252.07,68.59c1.88,10.88,3.14,21.92,1.94,32.87-1.44,13.18-6.89,25.29-16.82,34.24-11.52,10.39-26.92,17.19-41.87,20.85a121.88,121.88,0,0,1-52,.91c10.71,8.13,29.16,15.26,61,15.26,73.87,0,77.23-41,77.23-41S282.31,90.42,252.07,68.59Z" fill="#5ad3c2"/><path d="M181.8,71.65c-1.77-3-5.35-3.6-8.33-2.18a46,46,0,0,0-24,28.53c-2.21,7.53,9.53,10.75,11.74,3.24A34.08,34.08,0,0,1,179.61,80C182.58,78.56,183.36,74.32,181.8,71.65Z" fill="#99ffeb"/><path d="M250,112.75c-1.85-2.54-5.55,3-6.94,4.16s-.69-7.4-3.91-6.71-.48,7.17,0,9.94-8.09,27.29-12,20.58S216,127,216,127a37.07,37.07,0,0,0-3.81-2.35l-.58-.32-.59-.28-.31-.15a26.63,26.63,0,0,0-4.08-1.54l-1.86-6.77c8.6-6.37,11.21-20.28,2.08-27.46-4.55-3.58-10.9-4.53-15.58-.65a10.25,10.25,0,0,0-1.84,2c-3.57,5.06-2.94,13.25-1.21,18.67,1.28,4,4.7,10.74,9.86,10.35h.07l.77,3.15a16.55,16.55,0,0,0-9.42,4.1s-8.27,7.59-12.25,10.13-7.68-12.49-10-16.19,1.85-10.41-1.85-11.56.23,3.93-2.54,5.78-7.4-5.09-7.4-1.16,6.94,1.36,7.17,5.77,6.94,27.76,13.41,27.53c3.23-.12,8.48-2.77,12.93-5.39,2,7.78,5.16,17.29,4.42,24.46-.27,2.6-.47,4.43-.79,7.3a222.13,222.13,0,0,0,24.12-.12,255,255,0,0,0,2.28-29.18c2.56,4.4,6.52,9.41,10.93,8.48,7.63-1.62,12.26-25.9,12.72-28.45S251.85,115.29,250,112.75Z" fill="#400d20"/><path d="M201.44,95c-2.82,2.38-4,7.38-1.78,10.38,3.07,4.11,8.31-6.16,8.13-8.61-.21-2.84-3.37-3.68-5.57-2.34A6.26,6.26,0,0,0,201.44,95Z" fill="#71e3d1"/><path d="M192.7,103.7s-.56-7.83-3.35-8c-2-.16-1.94,2.83-1.79,4.12a6.32,6.32,0,0,0,2.22,4.28C190.85,104.95,193.06,106.11,192.7,103.7Z" fill="#71e3d1"/><path d="M195.18,106.59H195a.46.46,0,0,0,0,.92h.19A.46.46,0,0,0,195.18,106.59Z" fill="#71e3d1"/><path d="M197,106.46a.46.46,0,0,0,0,.92A.46.46,0,0,0,197,106.46Z" fill="#71e3d1"/></svg>