<svg width="80" height="80" viewBox="0 0 80 80" fill="none" xmlns="http://www.w3.org/2000/svg">
<path fill-rule="evenodd" clip-rule="evenodd" d="M40 80C62.0914 80 80 62.0914 80 40C80 17.9086 62.0914 0 40 0C17.9086 0 0 17.9086 0 40C0 62.0914 17.9086 80 40 80Z" fill="#171F26"/>
<path d="M40.0001 33.3333C39.558 33.3333 39.1341 33.5089 38.8216 33.8215C38.509 34.134 38.3334 34.558 38.3334 35C38.3334 35.442 38.509 35.8659 38.8216 36.1785C39.1341 36.4911 39.558 36.6667 40.0001 36.6667C40.8841 36.6667 41.732 37.0179 42.3571 37.643C42.9822 38.2681 43.3334 39.1159 43.3334 40C43.3334 40.8841 42.9822 41.7319 42.3571 42.357C41.732 42.9821 40.8841 43.3333 40.0001 43.3333C39.558 43.3333 39.1341 43.5089 38.8216 43.8215C38.509 44.134 38.3334 44.558 38.3334 45C38.3334 45.442 38.509 45.8659 38.8216 46.1785C39.1341 46.4911 39.558 46.6667 40.0001 46.6667C41.7682 46.6667 43.4639 45.9643 44.7141 44.714C45.9643 43.4638 46.6667 41.7681 46.6667 40C46.6667 38.2319 45.9643 36.5362 44.7141 35.286C43.4639 34.0357 41.7682 33.3333 40.0001 33.3333ZM56.1834 38.8167L52.2667 35V29.4C52.2667 28.958 52.0911 28.534 51.7786 28.2215C51.466 27.9089 51.0421 27.7333 50.6001 27.7333H45.0834L41.1834 23.8167C41.0285 23.6605 40.8441 23.5365 40.641 23.4518C40.4379 23.3672 40.2201 23.3237 40.0001 23.3237C39.78 23.3237 39.5622 23.3672 39.3591 23.4518C39.156 23.5365 38.9717 23.6605 38.8167 23.8167L35.0001 27.7333H29.4001C28.958 27.7333 28.5341 27.9089 28.2215 28.2215C27.909 28.534 27.7334 28.958 27.7334 29.4V35L23.8167 38.8167C23.6605 38.9716 23.5365 39.1559 23.4519 39.359C23.3673 39.5621 23.3237 39.78 23.3237 40C23.3237 40.22 23.3673 40.4379 23.4519 40.641C23.5365 40.8441 23.6605 41.0284 23.8167 41.1833L27.7334 45.0833V50.6C27.7334 51.042 27.909 51.4659 28.2215 51.7785C28.5341 52.0911 28.958 52.2667 29.4001 52.2667H35.0001L38.9001 56.1833C39.055 56.3395 39.2393 56.4635 39.4424 56.5481C39.6455 56.6328 39.8634 56.6763 40.0834 56.6763C40.3034 56.6763 40.5213 56.6328 40.7244 56.5481C40.9275 56.4635 41.1118 56.3395 41.2667 56.1833L45.1667 52.2667H50.6834C51.1254 52.2667 51.5493 52.0911 51.8619 51.7785C52.1745 51.4659 52.3501 51.042 52.3501 50.6V45.0833L56.2667 41.1833C56.4176 41.023 56.5352 40.8343 56.6128 40.6282C56.6903 40.4221 56.7262 40.2027 56.7185 39.9826C56.7107 39.7626 56.6595 39.5462 56.5676 39.3461C56.4758 39.146 56.3452 38.966 56.1834 38.8167ZM49.4334 43.2167C49.2759 43.371 49.1506 43.5551 49.0648 43.7582C48.979 43.9613 48.9343 44.1795 48.9334 44.4V48.9333H44.4001C44.1796 48.9342 43.9614 48.9789 43.7583 49.0647C43.5552 49.1506 43.3711 49.2759 43.2167 49.4333L40.0001 52.65L36.7834 49.4333C36.629 49.2759 36.445 49.1506 36.2418 49.0647C36.0387 48.9789 35.8206 48.9342 35.6001 48.9333H31.0667V44.4C31.0658 44.1795 31.0211 43.9613 30.9353 43.7582C30.8495 43.5551 30.7242 43.371 30.5667 43.2167L27.3501 40L30.5667 36.7833C30.7242 36.629 30.8495 36.4449 30.9353 36.2418C31.0211 36.0386 31.0658 35.8205 31.0667 35.6V31.0667H35.6001C35.8206 31.0658 36.0387 31.0211 36.2418 30.9353C36.445 30.8494 36.629 30.7241 36.7834 30.5667L40.0001 27.35L43.2167 30.5667C43.3711 30.7241 43.5552 30.8494 43.7583 30.9353C43.9614 31.0211 44.1796 31.0658 44.4001 31.0667H48.9334V35.6C48.9343 35.8205 48.979 36.0386 49.0648 36.2418C49.1506 36.4449 49.2759 36.629 49.4334 36.7833L52.6501 40L49.4334 43.2167Z" fill="#A3ABB2"/>
</svg>
