<svg version="1.1" id="Layer_1" xmlns="http://www.w3.org/2000/svg" xmlns:xlink="http://www.w3.org/1999/xlink" x="0px" y="0px" viewBox="0 0 500 500" style="width: 158px;" xml:space="preserve" data-imageid="sending-emails-5" imageName="Sending Emails" class="illustrations_image">
<style type="text/css">
	.st0{fill:#DD6F31;}
	.st1{fill:url(#SVGID_1_);}
	.st2{fill:url(#SVGID_00000094577872207452218440000017919831200881812127_);}
	.st3{fill:url(#SVGID_00000118384805553579989780000008943186252789193904_);}
	.st4{fill:#68E1FD;}
	.st5{opacity:0.82;fill:#1D3F75;enable-background:new    ;}
	.st6{fill:#2E3192;}
	.st7{fill:#1D3F75;}
	.st8{fill:#7EC971;}
	.st9{fill:#9C4100;}
	.st10{fill:#653200;}
	.st11{fill:#E4F5FD;}
	.st12{fill:#E85454;}
	.st13{opacity:0.2;fill:#1D3F75;enable-background:new    ;}
</style>
<g id="background">
	<path class="st0" d="M242.3,396.7L18.3,264.4c-7.1-4-13.2-10.6-6.3-14.9l224.8-129.5c3.4-2.1,8.5-3.4,11.9-1.5l235.1,136.4&#10;&#9;&#9;c7.1,4.1,8.4,15.7,1.3,19.9L271.8,396.5C262.7,401.8,251.5,401.9,242.3,396.7z"/>
	
		<linearGradient id="SVGID_1_" gradientUnits="userSpaceOnUse" x1="220.7077" y1="273.0744" x2="335.8477" y2="132.2444" gradientTransform="matrix(1 0 0 -1 0 502)">
		<stop offset="0" style="stop-color:#1D3F75"/>
		<stop offset="1" style="stop-color:#DD6F31;stop-opacity:0"/>
	</linearGradient>
	<path class="st1" d="M305.3,292L243,324.2l53.8,32.5c0.4,0,1.7,12.8-1.7,0.9c20.8-11.5,46.8-21.1,61.6-30.3&#10;&#9;&#9;C334.4,311.9,321.5,302,305.3,292z"/>
	
		<linearGradient id="SVGID_00000152251658992614164890000004354758985471321986_" gradientUnits="userSpaceOnUse" x1="125.5884" y1="283.0302" x2="118.6084" y2="233.5502" gradientTransform="matrix(1 0 0 -1 0 502)">
		<stop offset="0" style="stop-color:#1D3F75"/>
		<stop offset="1" style="stop-color:#DD6F31;stop-opacity:0"/>
	</linearGradient>
	<path style="fill:url(#SVGID_00000152251658992614164890000004354758985471321986_);" d="M127.9,234.1l-74,41l53.8,32.5&#10;&#9;&#9;c0.4,0,1.7,12.8-1.7,0.9c20.8-11.5,61.8-32.6,76.6-41.7C160.3,251.5,144.1,244.1,127.9,234.1z"/>
	
		<linearGradient id="SVGID_00000126320016472367325220000009962215512566905741_" gradientUnits="userSpaceOnUse" x1="382.2601" y1="299.7301" x2="496.4401" y2="176.9801" gradientTransform="matrix(1 0 0 -1 0 502)">
		<stop offset="0" style="stop-color:#1D3F75"/>
		<stop offset="1" style="stop-color:#DD6F31;stop-opacity:0"/>
	</linearGradient>
	<path style="fill:url(#SVGID_00000126320016472367325220000009962215512566905741_);" d="M449.1,294.1&#10;&#9;&#9;c11.3-6.6,23.5-11.7,34.1-19.3c-11.5-7.4-23-14.8-35-21.3l-30.4,23.1l30,18L449.1,294.1z"/>
</g>
<g id="mail">
	<path class="st4" d="M140.1,97.6v51.8c0,1.7,1.4,3,3,3c0.5,0,1-0.1,1.4-0.4l69.6-36.4v-58L140.1,97.6z"/>
	<path class="st4" d="M140.1,97.6c0,0,40.5,6.7,45,5.3s29.1-45.3,29.1-45.3L140.1,97.6z"/>
	<path class="st5" d="M140.1,97.6c0,0,40.5,6.7,45,5.3s29.1-45.3,29.1-45.3L140.1,97.6z"/>
	<path class="st4" d="M415.5,120.3v51.8c0,1.7-1.4,3-3,3c-0.5,0-1-0.1-1.4-0.4l-69.5-36.4v-58L415.5,120.3z"/>
	<path class="st4" d="M415.5,120.3c0,0-40.5,6.7-45,5.3s-29.1-45.4-29.1-45.4L415.5,120.3z"/>
	<path class="st5" d="M415.5,120.3c0,0-40.5,6.7-45,5.3s-29.1-45.4-29.1-45.4L415.5,120.3z"/>
</g>
<g id="flow">
	<path class="st6" d="M87.3,252.9h-0.2c-0.7-0.1-1.1-0.8-1-1.4c0.1-0.5,0.2-1,0.3-1.7c-0.2-0.2-0.3-0.6-0.2-0.9&#10;&#9;&#9;c0.2-2,0.4-4.1,0.7-6.2c0.1-0.7,0.7-1.2,1.4-1.1c0.7,0.1,1.2,0.7,1.1,1.4l0,0c-0.1,0.5-0.1,1.1-0.2,1.6c0.3,0.3,0.4,0.7,0.4,1.1&#10;&#9;&#9;c-0.3,2.8-0.7,4.9-0.9,6.2C88.5,252.5,87.9,252.9,87.3,252.9z M88.9,240.5h-0.1c-0.7-0.1-1.2-0.7-1.1-1.4c0.1-0.6,0.1-1.2,0.2-1.8&#10;&#9;&#9;c-0.2-0.3-0.3-0.6-0.2-0.9c0.3-2,0.6-4.1,1-6.2c0.1-0.7,0.8-1.1,1.4-1c0.7,0.1,1.1,0.8,1,1.4l0,0c-0.1,0.8-0.3,1.6-0.4,2.4&#10;&#9;&#9;c0,0,0,0.1,0,0.1c-0.1,2.1-0.3,4.2-0.5,6.2C90.1,240.1,89.6,240.6,88.9,240.5z M89.8,228.1L89.8,228.1c-0.7,0-1.3-0.6-1.2-1.3&#10;&#9;&#9;c0.1-2.1,0.1-4.2,0.2-6.2c0-0.7,0.6-1.2,1.2-1.2c0,0,0,0,0,0c0.2,0,0.5,0.1,0.7,0.2c0.1-0.6,0.2-1.1,0.3-1.7&#10;&#9;&#9;c0.2-0.7,0.9-1.1,1.5-0.9c0.6,0.2,1,0.8,0.9,1.4c-0.4,2-0.8,4-1.2,6.1c-0.1,0.5-0.6,0.9-1.1,1c0,0.4,0,0.9,0,1.4&#10;&#9;&#9;C91,227.6,90.4,228.1,89.8,228.1L89.8,228.1z M89.9,215.6c-0.7,0-1.2-0.5-1.2-1.2c0-2.1-0.1-4.2-0.2-6.2c0-0.7,0.5-1.3,1.2-1.3&#10;&#9;&#9;c0.7,0,1.3,0.5,1.3,1.2c0,0,0,0,0,0c0.1,2.1,0.2,4.2,0.2,6.3C91.1,215.1,90.6,215.6,89.9,215.6L89.9,215.6z M93.6,213.4&#10;&#9;&#9;c-0.1,0-0.2,0-0.3,0c-0.7-0.2-1.1-0.8-0.9-1.5c0.5-2,1-4.1,1.5-6.1c0.1-0.7,0.8-1.1,1.5-1c0.7,0.1,1.1,0.8,1,1.5c0,0.1,0,0.1,0,0.2&#10;&#9;&#9;c-0.5,2-1,4-1.5,6C94.6,213,94.1,213.4,93.6,213.4L93.6,213.4z M236.4,209c-0.5,0-0.9-0.3-1.1-0.7c-0.9-1.9-1.6-3.8-2.3-5.7&#10;&#9;&#9;c-0.2-0.6,0.1-1.4,0.8-1.6s1.4,0.1,1.6,0.8l0,0c0.6,1.9,1.4,3.7,2.2,5.5c0.3,0.6,0,1.4-0.6,1.6C236.8,209,236.6,209,236.4,209z&#10;&#9;&#9; M89.2,203.2c-0.6,0-1.2-0.5-1.2-1.1c-0.2-2.1-0.4-4.1-0.7-6.1c-0.1-0.7,0.3-1.3,1-1.5s1.3,0.3,1.5,1c0,0.1,0,0.1,0,0.2&#10;&#9;&#9;c0.3,2,0.5,4.1,0.7,6.2c0.1,0.7-0.4,1.3-1.1,1.4L89.2,203.2z M96.8,201.3c-0.1,0-0.2,0-0.3-0.1c-0.7-0.2-1-0.9-0.8-1.6&#10;&#9;&#9;c0.6-2,1.2-4,1.8-6c0.3-0.6,1-0.9,1.6-0.7c0.6,0.2,0.9,0.8,0.7,1.4c-0.6,1.9-1.2,3.9-1.8,5.9C97.8,200.9,97.3,201.3,96.8,201.3z&#10;&#9;&#9; M232.4,197.4c-0.6,0-1.1-0.4-1.2-1c-0.5-2.1-0.9-4.1-1.1-6.2c0-0.7,0.5-1.3,1.2-1.3c0.6,0,1.1,0.4,1.3,1c0.3,2,0.6,4,1.1,6&#10;&#9;&#9;c0.2,0.7-0.3,1.3-0.9,1.5C232.6,197.3,232.5,197.4,232.4,197.4z M346.7,191.9c-0.7-0.1-1.2-0.7-1.1-1.4c0.1-0.6,0.5-1.1,1.1-1.1&#10;&#9;&#9;c2,0,4-0.2,6-0.5c0.7-0.1,1.3,0.3,1.4,1c0,0,0,0,0,0c0.1,0.7-0.3,1.3-1,1.4C351,191.6,348.9,191.8,346.7,191.9L346.7,191.9z&#10;&#9;&#9; M340.5,191.5h-0.1c-2.1-0.3-4.2-0.6-6.3-1.1c-0.7-0.2-1.1-0.8-0.9-1.5c0.2-0.7,0.8-1.1,1.5-0.9c0,0,0,0,0,0c2,0.5,4,0.9,6,1.1&#10;&#9;&#9;c0.7,0.1,1.2,0.7,1.1,1.4C341.7,191.1,341.1,191.5,340.5,191.5L340.5,191.5z M87.5,190.9c-0.6,0-1.1-0.4-1.2-1&#10;&#9;&#9;c-0.4-2.1-0.8-4.1-1.3-6c-0.2-0.7,0.3-1.3,0.9-1.5s1.3,0.3,1.5,0.9c0.5,2,0.9,4.1,1.3,6.2c0.1,0.7-0.3,1.3-1,1.5c0,0,0,0,0,0&#10;&#9;&#9;L87.5,190.9z M358.9,189.7c-0.7,0-1.2-0.6-1.2-1.3c0-0.5,0.3-0.9,0.8-1.1c1.9-0.7,3.6-1.6,5.3-2.7c0.6-0.4,1.3-0.2,1.7,0.3&#10;&#9;&#9;s0.2,1.3-0.3,1.7c-1.8,1.2-3.8,2.2-5.8,2.9C359.2,189.7,359.1,189.7,358.9,189.7L358.9,189.7z M100.6,189.4c-0.7,0-1.2-0.5-1.3-1.2&#10;&#9;&#9;c0-0.1,0-0.3,0.1-0.4c0.7-2,1.4-4,2.2-5.9c0.3-0.6,1-0.9,1.6-0.6c0.6,0.3,0.9,0.9,0.7,1.5c-0.7,1.9-1.5,3.9-2.2,5.8&#10;&#9;&#9;C101.6,189.1,101.1,189.4,100.6,189.4L100.6,189.4z M328.4,188.5c-0.2,0-0.3,0-0.4-0.1c-2-0.8-3.9-1.7-5.8-2.7&#10;&#9;&#9;c-0.6-0.3-0.9-1-0.6-1.7s1-0.9,1.7-0.6c0.1,0,0.1,0.1,0.2,0.1c1.8,1,3.6,1.8,5.5,2.6c0.6,0.2,1,1,0.7,1.6&#10;&#9;&#9;C329.4,188.2,328.9,188.5,328.4,188.5L328.4,188.5z M230.8,185.1c-0.7,0-1.2-0.5-1.2-1.2c0-0.5,0-1,0-1.4c0-1.6,0.1-3.3,0.2-4.9&#10;&#9;&#9;c0.1-0.7,0.7-1.2,1.4-1.1c0.7,0.1,1.2,0.7,1.1,1.4l0,0c-0.1,1.5-0.2,3.1-0.2,4.7c0,0.5,0,0.9,0,1.4&#10;&#9;&#9;C232.1,184.5,231.5,185,230.8,185.1C230.9,185,230.9,185,230.8,185.1L230.8,185.1z M369.1,182.8c-0.3,0-0.6-0.1-0.8-0.3&#10;&#9;&#9;c-0.5-0.5-0.6-1.2-0.1-1.8c0,0,0,0,0,0c1.3-1.5,2.5-3.1,3.4-4.9c0.4-0.6,1.1-0.8,1.7-0.4c0.6,0.3,0.8,1,0.5,1.6&#10;&#9;&#9;c-1,1.9-2.3,3.7-3.7,5.3C369.8,182.6,369.5,182.8,369.1,182.8L369.1,182.8z M317.6,182.5c-0.3,0-0.5-0.1-0.8-0.3&#10;&#9;&#9;c-1.7-1.3-3.3-2.7-4.8-4.1c-0.5-0.5-0.5-1.3,0-1.8c0.5-0.5,1.3-0.5,1.8,0c0,0,0,0,0,0c1.5,1.4,3,2.8,4.6,4c0.5,0.4,0.7,1.2,0.2,1.7&#10;&#9;&#9;c0,0,0,0,0,0C318.3,182.4,317.9,182.5,317.6,182.5L317.6,182.5z M84.6,178.7c-0.5,0-1-0.4-1.2-0.9c-0.6-2-1.3-4-2-5.8&#10;&#9;&#9;c-0.3-0.6,0-1.4,0.6-1.7c0.6-0.3,1.4,0,1.7,0.6c0,0.1,0.1,0.1,0.1,0.2c0.7,1.9,1.4,3.9,2,6c0.2,0.7-0.2,1.3-0.8,1.6&#10;&#9;&#9;C84.8,178.7,84.7,178.7,84.6,178.7L84.6,178.7z M105.1,177.8c-0.2,0-0.3,0-0.5-0.1c-0.6-0.3-0.9-1-0.7-1.6c0,0,0,0,0,0&#10;&#9;&#9;c0.8-1.9,1.7-3.9,2.6-5.7c0.3-0.6,1.1-0.8,1.7-0.5c0.6,0.3,0.8,1,0.6,1.6c-0.9,1.8-1.7,3.7-2.5,5.6&#10;&#9;&#9;C106.1,177.5,105.6,177.8,105.1,177.8L105.1,177.8z M308.5,174c-0.4,0-0.7-0.2-0.9-0.4c-1.3-1.4-2.6-2.9-4.1-4.8&#10;&#9;&#9;c-0.5-0.5-0.5-1.3,0-1.8s1.3-0.5,1.8,0c0,0,0.1,0.1,0.1,0.1c1.5,1.8,2.8,3.3,4,4.7c0.5,0.5,0.4,1.3-0.1,1.7c0,0,0,0,0,0&#10;&#9;&#9;C309.1,173.9,308.8,174,308.5,174z M231.9,172.7h-0.3c-0.7-0.1-1.1-0.8-1-1.5c0,0,0,0,0,0c0.4-2.1,1-4.1,1.7-6.1&#10;&#9;&#9;c0.2-0.6,0.9-1,1.6-0.8s1,0.9,0.8,1.6l0,0c-0.7,1.9-1.2,3.9-1.6,5.9C232.9,172.3,232.5,172.7,231.9,172.7L231.9,172.7z M375.1,172&#10;&#9;&#9;c-0.1,0-0.2,0-0.4-0.1c-0.7-0.2-1-0.9-0.8-1.6c0.6-1.9,1-3.9,1.1-5.9c0.1-0.7,0.7-1.2,1.4-1.1c0.7,0.1,1.2,0.7,1.1,1.3c0,0,0,0,0,0&#10;&#9;&#9;c-0.2,2.2-0.6,4.3-1.2,6.4C376.1,171.6,375.7,172,375.1,172z M80.1,167.1c-0.5,0-0.9-0.3-1.1-0.7c-0.9-1.9-1.8-3.7-2.8-5.4&#10;&#9;&#9;c-0.3-0.6-0.1-1.4,0.5-1.7c0.6-0.3,1.4-0.1,1.7,0.4l0,0c1,1.8,2,3.7,2.9,5.6c0.3,0.6,0,1.4-0.6,1.7&#10;&#9;&#9;C80.5,167.1,80.3,167.1,80.1,167.1L80.1,167.1z M110.4,166.6c-0.2,0-0.4-0.1-0.6-0.1c-0.6-0.3-0.8-1.1-0.5-1.7c1-1.9,2-3.7,3-5.5&#10;&#9;&#9;c0.3-0.6,1-0.9,1.7-0.6s0.9,1,0.6,1.7c0,0.1-0.1,0.1-0.1,0.1c-1,1.8-2,3.6-2.9,5.4C111.3,166.3,110.8,166.5,110.4,166.6&#10;&#9;&#9;L110.4,166.6z M300.5,164.4c-0.4,0-0.8-0.2-1-0.5c-1.3-1.6-2.6-3.2-3.9-4.8c-0.5-0.5-0.5-1.3,0-1.8s1.3-0.5,1.8,0&#10;&#9;&#9;c0,0,0.1,0.1,0.1,0.2c1.3,1.6,2.6,3.2,4,4.8c0.4,0.5,0.4,1.3-0.2,1.8c0,0,0,0,0,0C301.1,164.3,300.8,164.4,300.5,164.4L300.5,164.4&#10;&#9;&#9;z M236,161c-0.2,0-0.4,0-0.6-0.1c-0.6-0.3-0.9-1.1-0.5-1.7c1-1.9,2.1-3.7,3.3-5.5c0.5-0.5,1.3-0.5,1.8,0c0.4,0.4,0.5,1,0.2,1.4&#10;&#9;&#9;c-1.2,1.6-2.2,3.4-3.1,5.2C236.9,160.7,236.5,161,236,161z M376.2,159.7c-0.6,0-1.2-0.5-1.2-1.1c-0.2-2-0.6-3.9-1.2-5.8&#10;&#9;&#9;c-0.3-0.6,0.1-1.4,0.7-1.6c0.6-0.3,1.4,0.1,1.6,0.7c0,0,0,0.1,0,0.1c0.7,2.1,1.1,4.2,1.4,6.3c0.1,0.7-0.4,1.3-1.1,1.4H376.2z&#10;&#9;&#9; M73.9,156.4c-0.4,0-0.8-0.2-1-0.5c-1.2-1.6-2.5-3.2-3.8-4.7c-0.4-0.5-0.3-1.3,0.2-1.8c0.5-0.4,1.2-0.3,1.6,0.1&#10;&#9;&#9;c1.4,1.6,2.8,3.3,4,5c0.4,0.6,0.3,1.3-0.2,1.8C74.4,156.3,74.2,156.4,73.9,156.4L73.9,156.4z M116.6,155.7c-0.2,0-0.5-0.1-0.7-0.2&#10;&#9;&#9;c-0.6-0.4-0.8-1.1-0.4-1.7c1.1-1.8,2.3-3.6,3.5-5.2c0.3-0.6,1-0.9,1.7-0.6c0.6,0.3,0.9,1,0.6,1.7c-0.1,0.1-0.2,0.3-0.3,0.4&#10;&#9;&#9;c-1.2,1.6-2.3,3.4-3.4,5.1C117.4,155.5,117,155.7,116.6,155.7z M292.5,154.9c-0.3,0-0.7-0.1-0.9-0.4c-0.5-0.6-1-1.1-1.6-1.6&#10;&#9;&#9;c-0.9-0.9-1.9-1.8-2.8-2.6c-0.5-0.5-0.6-1.2-0.1-1.8c0.4-0.5,1.2-0.6,1.7-0.1c0,0,0,0,0,0c1,0.9,2,1.8,2.9,2.8&#10;&#9;&#9;c0.5,0.6,1.1,1.1,1.6,1.7c0.5,0.5,0.5,1.3,0,1.8C293.1,154.8,292.8,154.9,292.5,154.9L292.5,154.9z M243.2,150.8&#10;&#9;&#9;c-0.3,0-0.6-0.1-0.9-0.4c-0.5-0.5-0.5-1.3,0-1.8c1.5-1.6,3.2-2.9,5-4.2c0.6-0.4,1.3-0.2,1.7,0.3c0.4,0.6,0.2,1.3-0.3,1.7&#10;&#9;&#9;c-1.6,1.1-3.2,2.4-4.6,3.9C243.9,150.7,243.6,150.9,243.2,150.8z M372.4,147.8c-0.5,0-0.9-0.2-1.1-0.6c-1-1.8-2.1-3.4-3.3-5.1&#10;&#9;&#9;c-0.4-0.5-0.4-1.3,0.1-1.8c0.5-0.4,1.3-0.4,1.8,0.1c0,0,0.1,0.1,0.1,0.1c1.3,1.7,2.5,3.5,3.5,5.3c0.3,0.6,0.1,1.4-0.5,1.7&#10;&#9;&#9;C372.8,147.8,372.6,147.9,372.4,147.8L372.4,147.8z M65.5,147.1c-0.3,0-0.6-0.1-0.8-0.3c-1.5-1.3-3.1-2.6-4.8-3.7&#10;&#9;&#9;c-0.6-0.3-0.8-1.1-0.5-1.7c0.3-0.6,1.1-0.8,1.7-0.5c0.1,0,0.1,0.1,0.2,0.1c1.7,1.2,3.4,2.5,5,3.9c0.5,0.5,0.6,1.2,0.1,1.8&#10;&#9;&#9;C66.2,146.9,65.9,147.1,65.5,147.1L65.5,147.1z M283.1,146.7c-0.2,0-0.5-0.1-0.7-0.2c-1.7-1.1-3.4-2.1-5.3-2.9&#10;&#9;&#9;c-0.6-0.3-1-1-0.7-1.6c0.3-0.6,1-1,1.6-0.7c0,0,0,0,0.1,0c2,0.9,3.9,1.9,5.6,3.1c0.6,0.4,0.7,1.2,0.3,1.7&#10;&#9;&#9;C283.9,146.5,283.5,146.7,283.1,146.7L283.1,146.7z M123.7,145.4c-0.3,0-0.6-0.1-0.8-0.3c-0.5-0.4-0.6-1.2-0.2-1.8&#10;&#9;&#9;c1.3-1.7,2.7-3.3,4-4.9c0.5-0.5,1.2-0.6,1.8-0.1c0.5,0.5,0.6,1.2,0.1,1.8c-1.3,1.5-2.7,3.1-3.9,4.8&#10;&#9;&#9;C124.4,145.3,124.1,145.5,123.7,145.4L123.7,145.4z M253.4,143.8c-0.7,0-1.2-0.6-1.2-1.3c0-0.5,0.3-0.9,0.7-1.1&#10;&#9;&#9;c1.2-0.5,2.4-0.9,3.6-1.3c0.9-0.2,1.7-0.5,2.6-0.7c0.7-0.1,1.3,0.3,1.5,0.9c0.1,0.7-0.3,1.3-0.9,1.5c-0.8,0.2-1.6,0.4-2.4,0.6&#10;&#9;&#9;c-1.1,0.3-2.2,0.7-3.3,1.2C253.8,143.8,253.6,143.8,253.4,143.8L253.4,143.8z M271.7,141.8c-0.1,0-0.2,0-0.3,0&#10;&#9;&#9;c-1.8-0.4-3.7-0.6-5.6-0.6h-0.3c-0.7,0-1.2-0.6-1.2-1.2s0.6-1.2,1.2-1.2h0.4c2,0,4.1,0.2,6.1,0.6c0.7,0.1,1.1,0.8,0.9,1.5&#10;&#9;&#9;C272.8,141.4,272.3,141.8,271.7,141.8L271.7,141.8z M55.3,140.1c-0.2,0-0.4-0.1-0.6-0.1c-1.8-0.9-3.7-1.7-5.5-2.5&#10;&#9;&#9;c-0.6-0.3-0.9-1-0.6-1.7c0.3-0.5,0.9-0.8,1.5-0.7c2,0.7,3.9,1.6,5.8,2.6c0.6,0.3,0.9,1.1,0.5,1.7C56.2,139.9,55.7,140.2,55.3,140.1&#10;&#9;&#9;z M365.2,137.8c-0.4,0-0.8-0.2-1-0.5c-0.5-0.6-0.9-1.2-1.4-1.8c-0.8-1-1.6-2.1-2.5-3.1c-0.5-0.5-0.5-1.3,0.1-1.8&#10;&#9;&#9;c0.5-0.5,1.3-0.5,1.8,0.1c0,0,0.1,0.1,0.1,0.1c0.9,1,1.7,2.1,2.6,3.2l1.4,1.7c0.4,0.5,0.3,1.3-0.2,1.7&#10;&#9;&#9;C365.7,137.7,365.4,137.7,365.2,137.8L365.2,137.8z M131.9,136.1c-0.7,0-1.3-0.5-1.3-1.2c0-0.3,0.1-0.7,0.4-0.9&#10;&#9;&#9;c1.5-1.5,3-3,4.6-4.3c0.5-0.5,1.3-0.5,1.8,0s0.5,1.3,0,1.8c0,0-0.1,0.1-0.1,0.1c-1.5,1.3-3,2.8-4.5,4.2&#10;&#9;&#9;C132.5,136,132.2,136.1,131.9,136.1L131.9,136.1z M357.1,128.3c-0.3,0-0.6-0.1-0.9-0.4c-1.4-1.4-2.9-2.9-4.5-4.2&#10;&#9;&#9;c-0.5-0.5-0.6-1.2-0.1-1.8s1.2-0.6,1.8-0.1c1.6,1.4,3.1,2.8,4.6,4.3c0.5,0.5,0.5,1.3,0,1.8C357.7,128.2,357.4,128.3,357.1,128.3&#10;&#9;&#9;L357.1,128.3z M141.2,127.9c-0.7,0-1.2-0.6-1.2-1.3c0-0.4,0.2-0.8,0.5-1c1.7-1.3,3.4-2.5,5.2-3.6c0.6-0.4,1.3-0.2,1.7,0.4&#10;&#9;&#9;s0.2,1.3-0.4,1.7c-1.7,1.1-3.4,2.3-5,3.5C141.8,127.8,141.5,127.9,141.2,127.9L141.2,127.9z M151.6,121.1c-0.4,0-0.9-0.2-1.1-0.6&#10;&#9;&#9;c-0.3-0.6-0.1-1.4,0.5-1.7c1.8-1,3.6-2,5.5-3c0.6-0.3,1.4-0.1,1.7,0.6c0.3,0.6,0.1,1.4-0.6,1.7c-1.9,1-3.7,1.9-5.4,2.9&#10;&#9;&#9;C152.1,121,151.9,121.1,151.6,121.1z M347.7,120.1c-0.3,0-0.5-0.1-0.8-0.3c-1.6-1.2-3.3-2.4-5-3.6c-0.5-0.4-0.6-1.2-0.2-1.8&#10;&#9;&#9;c0.4-0.5,1.1-0.6,1.6-0.3c1.8,1.2,3.5,2.4,5.1,3.7c0.5,0.4,0.7,1.2,0.2,1.7C348.5,119.9,348.1,120.1,347.7,120.1L347.7,120.1z&#10;&#9;&#9; M162.7,115.4c-0.7,0-1.2-0.6-1.2-1.3c0-0.5,0.3-0.9,0.7-1.1c1.9-0.9,3.8-1.7,5.7-2.6c0.6-0.3,1.4,0.1,1.6,0.7&#10;&#9;&#9;c0.2,0.6,0,1.3-0.6,1.6c-1.9,0.8-3.8,1.7-5.6,2.5C163.1,115.3,162.9,115.4,162.7,115.4L162.7,115.4z M337.4,113.1&#10;&#9;&#9;c-0.2,0-0.4-0.1-0.6-0.2c-1.7-1-3.6-2-5.4-3c-0.6-0.4-0.8-1.1-0.4-1.7c0.3-0.5,1-0.8,1.6-0.5c1.9,1,3.7,2,5.5,3&#10;&#9;&#9;c0.6,0.3,0.8,1.1,0.5,1.7c0,0,0,0,0,0C338.3,112.8,337.9,113.1,337.4,113.1L337.4,113.1z M174.2,110.5c-0.7,0-1.2-0.6-1.2-1.3&#10;&#9;&#9;c0-0.5,0.3-1,0.8-1.2c1.9-0.8,3.9-1.5,5.9-2.2c0.6-0.3,1.4,0,1.6,0.6c0.3,0.6,0,1.4-0.6,1.6c-0.1,0-0.1,0-0.2,0.1&#10;&#9;&#9;c-2,0.7-3.9,1.4-5.8,2.2C174.5,110.4,174.3,110.5,174.2,110.5L174.2,110.5z M326.3,107.5c-0.2,0-0.3,0-0.5-0.1&#10;&#9;&#9;c-1.8-0.8-3.8-1.6-5.7-2.4c-0.6-0.2-1-1-0.7-1.6c0.2-0.6,1-1,1.6-0.7c2,0.8,3.9,1.6,5.8,2.4c0.6,0.3,0.9,1,0.6,1.6c0,0,0,0,0,0&#10;&#9;&#9;C327.3,107.2,326.8,107.4,326.3,107.5L326.3,107.5z M185.9,106.3c-0.7,0-1.2-0.6-1.2-1.3c0-0.5,0.3-1,0.8-1.1c2-0.6,4-1.3,6-1.8&#10;&#9;&#9;c0.7-0.2,1.3,0.2,1.5,0.8c0,0,0,0,0,0c0.2,0.7-0.2,1.4-0.8,1.6c-2,0.6-4,1.2-5.9,1.8C186.2,106.3,186,106.3,185.9,106.3&#10;&#9;&#9;L185.9,106.3z M314.7,103c-0.1,0-0.3,0-0.4-0.1c-1.9-0.7-3.9-1.3-5.9-1.8c-0.7-0.2-1-0.9-0.9-1.5c0.2-0.7,0.9-1,1.5-0.8l0,0&#10;&#9;&#9;c2,0.6,4,1.2,6,1.8c0.7,0.2,1,0.9,0.8,1.6C315.7,102.6,315.3,103,314.7,103z M197.9,102.8c-0.7,0-1.2-0.6-1.2-1.3&#10;&#9;&#9;c0-0.5,0.4-1,0.9-1.2c2-0.5,4-1,6.1-1.5c0.7-0.2,1.3,0.3,1.5,0.9c0.2,0.7-0.3,1.3-0.9,1.5l0,0c-2,0.5-4,1-6,1.5&#10;&#9;&#9;C198.1,102.8,198,102.8,197.9,102.8L197.9,102.8z M210,99.9c-0.7,0-1.3-0.5-1.3-1.2c0-0.6,0.4-1.1,1-1.3c2-0.4,4.1-0.8,6.1-1.2&#10;&#9;&#9;c0.7-0.1,1.3,0.3,1.4,1c0.1,0.7-0.3,1.3-1,1.4c0,0,0,0,0,0c-2,0.4-4.1,0.8-6.1,1.2C210.2,99.9,210.1,99.9,210,99.9z M302.8,99.5&#10;&#9;&#9;c-0.1,0-0.2,0-0.3,0c-2-0.5-4-0.9-6-1.3c-0.7-0.1-1.1-0.8-1-1.5s0.8-1.1,1.5-1c2.1,0.4,4.1,0.9,6.1,1.3c0.7,0.2,1.1,0.9,0.9,1.5&#10;&#9;&#9;C303.8,99.1,303.4,99.5,302.8,99.5L302.8,99.5z M222.2,97.6c-0.7,0-1.3-0.5-1.3-1.2c0-0.6,0.5-1.2,1.1-1.3c2.1-0.3,4.1-0.6,6.2-0.9&#10;&#9;&#9;c0.7-0.1,1.3,0.4,1.4,1.1c0.1,0.7-0.4,1.3-1.1,1.4c-2,0.3-4.1,0.6-6.1,0.9L222.2,97.6z M290.5,97.1h-0.2c-2-0.3-4.1-0.6-6.1-0.9&#10;&#9;&#9;c-0.7-0.1-1.2-0.7-1.1-1.4c0.1-0.7,0.7-1.1,1.4-1.1c2.1,0.3,4.2,0.6,6.2,0.9c0.7,0.1,1.1,0.8,1,1.4&#10;&#9;&#9;C291.6,96.6,291.1,97.1,290.5,97.1L290.5,97.1z M234.6,96c-0.7,0-1.2-0.6-1.2-1.3c0-0.6,0.5-1.1,1.1-1.2c2.1-0.2,4.2-0.4,6.2-0.6&#10;&#9;&#9;c0.7-0.1,1.3,0.5,1.3,1.1c0.1,0.7-0.5,1.3-1.1,1.3c-2,0.2-4.1,0.4-6.2,0.6L234.6,96z M278.1,95.5H278c-2-0.2-4.1-0.3-6.2-0.5&#10;&#9;&#9;c-0.7-0.1-1.2-0.7-1.1-1.4c0.1-0.6,0.6-1.1,1.2-1.1c2.1,0.1,4.2,0.3,6.2,0.5c0.7,0,1.2,0.6,1.2,1.3C279.4,95,278.8,95.5,278.1,95.5&#10;&#9;&#9;L278.1,95.5L278.1,95.5z M247,95c-0.7,0-1.2-0.6-1.2-1.2s0.6-1.2,1.2-1.2c2.1-0.1,4.2-0.2,6.3-0.3c0.7,0,1.3,0.5,1.3,1.2&#10;&#9;&#9;c0,0,0,0,0,0c0,0.7-0.5,1.3-1.2,1.3c0,0,0,0,0,0c-2,0.1-4.1,0.1-6.2,0.2L247,95z M265.7,94.8L265.7,94.8c-2-0.1-4.1-0.1-6.2-0.1&#10;&#9;&#9;c-0.7,0.1-1.3-0.4-1.4-1.1c-0.1-0.7,0.4-1.3,1.1-1.4c0.1,0,0.1,0,0.2,0l0,0c2.1,0,4.2,0,6.3,0.1c0.7,0.1,1.2,0.7,1.1,1.4&#10;&#9;&#9;C266.8,94.2,266.4,94.7,265.7,94.8L265.7,94.8z"/>
	<polygon class="st6" points="336.6,176.9 342,204.2 359.8,188.3 &#9;"/>
	<polygon class="st6" points="308,99.2 318.8,110.7 322.5,97.7 &#9;"/>
	<polygon class="st6" points="169.3,120.1 161.3,106.4 154.7,118.3 &#9;"/>
	<polygon class="st6" points="42.3,133.9 53.2,145.4 56.9,132.3 &#9;"/>
</g>
<g id="mail-2">
	<path class="st4" d="M53.9,221.5v51.7c0,1.7,1.4,3,3.1,2.9c0.5,0,1-0.1,1.4-0.4l69.6-38.6v-55.7L53.9,221.5z"/>
	<path class="st4" d="M53.9,221.5c0,0,40.5,6.6,45,5.3s29.1-45.4,29.1-45.4L53.9,221.5z"/>
	<path class="st5" d="M53.9,221.5c0,0,40.5,6.6,45,5.3s29.1-45.4,29.1-45.4L53.9,221.5z"/>
</g>
<g id="plant">
	<ellipse class="st4" cx="432" cy="258.6" rx="23.9" ry="22.2"/>
	<ellipse class="st7" cx="432" cy="245.5" rx="17.9" ry="9.7"/>
	<path class="st8" d="M431,167.4v76c0,0.8,0.7,1.5,1.5,1.5c0.8,0,1.5-0.7,1.5-1.5v-76c0-0.8-0.7-1.5-1.5-1.5&#10;&#9;&#9;C431.7,165.8,431,166.5,431,167.4z"/>
	<path class="st8" d="M438.2,164.6c0.9-1.8,1.1-3.9,0.5-5.8c-0.7-2.1-1.7-4.1-2.5-6.2s-1.6-3.9-2.5-5.7l0,0&#10;&#9;&#9;c-0.9,0.4-7.3,10.1-7.6,14.2s5.1,7.5,5.1,7.5l1.6,1c0.3,0.2,3.1-2.1,3.4-2.4C437,166.4,437.7,165.5,438.2,164.6z"/>
	<path class="st8" d="M433.5,186.7L433.5,186.7c6.8-0.6,11.5-6.4,14.6-12.3C440.9,174.8,434.3,179.3,433.5,186.7z"/>
	<path class="st8" d="M432.9,186.4L432.9,186.4c-2.1-6.5-8.6-9.9-15.1-11.8C419.7,181.6,425.5,187.1,432.9,186.4z"/>
	<path class="st8" d="M432.6,205.3L432.6,205.3c8.6-0.8,14.6-8.1,18.6-15.6C442,190.2,433.6,195.9,432.6,205.3z"/>
	<path class="st8" d="M431.9,205L431.9,205c-2.6-8.3-11-12.6-19.2-15C415.1,198.9,422.5,205.9,431.9,205z"/>
	<path class="st8" d="M433.2,227.2L433.2,227.2c9.8-1,16.6-9.2,21.2-17.8C444,210,434.5,216.5,433.2,227.2z"/>
	<path class="st8" d="M432.5,226.9L432.5,226.9c-3-9.4-12.5-14.3-21.8-17.1C413.3,219.9,421.7,227.9,432.5,226.9z"/>
</g>
<g id="character">
	<path class="st9" d="M244.4,308.8l1.6-1.2l-1.4-18.9l-8.4,0.3c0,0,0.4,8.1-1.4,10.1s-6.8,1-7.3,1.2s-3.8-0.5-5.2,1.1s5.5,5.5,9,6.1&#10;&#9;&#9;c2.4,0.3,4.8,0.2,7.2-0.2c0,0,0.4-4.9,1.6-4.5s1.7,5.5,1.7,5.5L244.4,308.8z"/>
	<path class="st10" d="M247.9,249.2c0.7,19.8,1.4,45.6,1.4,45.6s-4.6,6.1-16.9,3.5c-1.3-0.3-4.3-31.8-5.7-48.2&#10;&#9;&#9;C233.6,248.2,240.8,247.9,247.9,249.2z"/>
	<path class="st9" d="M222.5,325l1.6-1.2l-1.4-18.9l-8.4,0.3c0,0,0.4,8.1-1.4,10.1s-6.9,1-7.3,1.2s-3.8-0.5-5.2,1.1s5.5,5.5,9,6.1&#10;&#9;&#9;c2.4,0.3,4.8,0.2,7.2-0.2c0,0,0.4-4.9,1.6-4.5s1.7,5.5,1.7,5.5L222.5,325z"/>
	<path class="st10" d="M218.9,252.8c5.5-2.5,11.5-3.9,17.5-4.3c-1,7.4-2,12.5-2.1,12.9c-0.4,0.9-8.1,47.9-8.1,47.9&#10;&#9;&#9;c-9.1,3.6-19.8,0.6-19.8,0.6s3.7-36.7,4-42.8c0-0.6,0.1-1.3,0.1-2C210.7,259.8,214,255,218.9,252.8z"/>
	<path class="st10" d="M274.8,263.8c0,0-15.4-13.8-26.9-14.5s-27.8,11-26.5,17.9s23.2,21.5,23.2,21.5"/>
	<path class="st7" d="M243.3,239.1l12.3-8.6c1-0.7,1.4-2,0.9-3.2l-8.7-19.1c-0.6-1.3-2.1-1.9-3.5-1.3c-0.1,0-0.2,0.1-0.3,0.2&#10;&#9;&#9;l-13.7,8.4c-1.1,0.7-1.6,2.2-0.9,3.4l10.1,19.2c0.7,1.3,2.2,1.8,3.5,1.1C243.1,239.3,243.2,239.2,243.3,239.1z"/>
	<path class="st4" d="M244.4,238.5l12.3-8.6c1-0.7,1.4-2,0.9-3.2l-8.7-19.1c-0.6-1.3-2.2-1.9-3.5-1.3c-0.1,0-0.2,0.1-0.3,0.2&#10;&#9;&#9;l-13.7,8.4c-1.2,0.7-1.6,2.2-0.9,3.4l10.1,19.2c0.7,1.3,2.3,1.8,3.5,1.1C244.2,238.6,244.3,238.5,244.4,238.5z"/>
	<polygon class="st11" points="242.3,237.3 256.1,227.6 247.1,207.7 231.7,217.2 &#9;"/>
	<path class="st12" d="M248.7,216.2c4.6,2.5,11.7,5.3,16.5,8.6c0.8,0.5,1.9,2.3,1.2,2.1c0.3,0.4-2.8,1.6-2.5,2c0.1,0.1-2-1-2.1-1&#10;&#9;&#9;s0,0,0,0c-1.8,0.9-3.9,1.2-5.9,0.7L255,228l0,0l-0.2-0.1c0-0.1-0.1-0.1-0.1-0.1l-0.1-0.1c0-0.1-0.1-0.2-0.2-0.3&#10;&#9;&#9;c-1-0.8-3.4-1.3-3.6-2.6c0-0.4,0.2-0.7,0.3-1c0.1-0.2,0.1-0.4-0.1-0.5c-0.2-0.8,0-1.7,0.5-2.4l0.1-0.1l-0.3-0.3&#10;&#9;&#9;c-1.2-0.9-2.4-1.8-3.5-2.9c-0.1-0.1-0.2-0.3-0.2-0.4c0,0,0-0.1,0-0.1c0,0,0-0.1,0-0.1c0-0.5,0.4-0.8,0.9-0.8&#10;&#9;&#9;C248.5,216.1,248.6,216.1,248.7,216.2z"/>
	<path class="st10" d="M250.9,222c-0.4,0.4-0.4,1.1,0,1.6c0,0,0,0,0,0c0,0,0,0.1,0,0.1c-0.3,0.6-0.3,1.2,0,1.8&#10;&#9;&#9;c0.6,0.6,1.3,1.1,2.1,1.4c0.3,0.1,0.5,0.2,0.8,0.3c1.3,2,5,2.4,6.8,1c0.2-0.2-0.1-0.5-0.3-0.3c-1.5,1.1-4.9,0.8-6.1-0.9l0.1-0.1&#10;&#9;&#9;c0.2-0.5,0.1-1.1-0.2-1.6c0.2-0.2,0.4-0.3,0.5-0.5c0,0,0-0.1,0.1-0.1c0.6,0.3,1.2,0.6,1.8,0.9c0.3,0.1,0.5-0.2,0.2-0.4l-2.9-1.4&#10;&#9;&#9;c-0.7-0.4-3.2-1.3-2.5-2.5s4.6,1.6,5.5,2.2c0.2,0.2,0.5-0.2,0.2-0.4c-1.4-1-3-1.9-4.6-2.6c-0.8-0.3-1.3-0.3-1.6,0.6&#10;&#9;&#9;C250.9,221.4,250.9,221.7,250.9,222z M251.3,223.9c0.1,0.1,0.2,0.2,0.4,0.3l1.1,0.7c0.3,0.2,0.6,0.4,0.9,0.5h0.1&#10;&#9;&#9;c0.2,0.3,0.6,1.1,0,1.2c-0.3,0.1-1-0.4-1.3-0.6c-0.5-0.2-0.9-0.5-1.2-0.9C251.1,224.7,251.1,224.3,251.3,223.9z M251.1,222.5&#10;&#9;&#9;c0.2,0.2,0.4,0.4,0.6,0.6c0.8,0.5,1.7,1,2.6,1.4c-0.6,0.7-1.1,0.2-1.7-0.2C252.2,224,250.7,223.3,251.1,222.5L251.1,222.5z"/>
	<path class="st4" d="M262.4,221.3c0,0-3.1,0.7-3.3,7.1l2.3,5.7l12.5-6.4C273.9,227.7,270.9,223.9,262.4,221.3z"/>
	<path class="st12" d="M232.6,224.3c0.9,2,1.9,3.9,2.6,6c0.6-1.4,1.1-2.5,1.8-3.8c0,0,0.1-0.1,0.1-0.1c0.3-0.5,1-0.7,1.5-0.4&#10;&#9;&#9;c0.4,0.2,0.6,0.6,0.5,1c-0.2,1.3-0.7,2.5-1.5,3.5c0.1,0.1,0.2,0.1,0.3,0.2c1.8,2,1.4,5,1.2,7.5c-0.1,0.5-0.6,0.9-1.1,0.8&#10;&#9;&#9;c-0.1,0-0.2,0-0.3-0.1c-0.2,0-0.3,0-0.5-0.1c-1.8-1-2.6-2.9-3.3-4.6C232.9,231.1,231.6,227.6,232.6,224.3z"/>
	<path class="st4" d="M279.5,224.2l-4.5-1.3c-1.1,0.2-10.9,4.1-15,11c-0.5,2.1-0.8,4.3-1,6.4c-0.4,2.9-0.7,5.8-0.8,8.7&#10;&#9;&#9;c-0.2,3.2-0.1,6.3,0.1,9.5c0.1,1.4,0.2,2,0.5,3.4c0.5,0.5,1.1,0.8,1.8,1.1c13.6,4.7,23.6-2.9,24-4s1.1-16.6,1.4-25.9&#10;&#9;&#9;C286,228.9,283.3,225.3,279.5,224.2z"/>
	<path class="st12" d="M267.5,208.2c0,0-3.1,15.2,2.6,16.8s12.3-4.7,12.8-7.8S275.4,203.1,267.5,208.2z"/>
	<path class="st10" d="M269.6,214.3c-0.2-0.2-3.4-1.1-4.1-3.8s1.8-6.3,7.5-6.8s15.2,2.5,13.7,17.3s-16.5,8.4-17.5,3.7&#10;&#9;&#9;S269.6,214.3,269.6,214.3z"/>
	<path class="st10" d="M269.6,214.3c0,0-1,5.1-3,7.2s-3.7,6.1-1.2,9.1s0,4.6-3.6,7.5s-1.4,14.6,11.5,11.7s19-10.6,19-10.6&#10;&#9;&#9;s-3.3-23-6.8-28.4"/>
	<path class="st4" d="M259.9,234.1c0,0-2.9,9.7-5.8,10s-7.4-4-10.5-9.6c0,0-8.1-0.8-9,7.8c0,0,10.3,20.6,25.3,15.6"/>
	<path class="st8" d="M313.8,308c9.2-11.4,13.5-25.9,13.3-40.5c-0.1-11.8-4.8-23.1-13-31.6c-7.6-7.7-19.1-11.5-29.3-6.3&#10;&#9;&#9;c-8.5,4.3-12.5,12.7-15.5,21.2c-3.5,10.2-4.7,23.3-17.3,26.5c-4.9,1.2-10,0.4-15,0c-8.8-0.6-18,2.2-20.7,11.5&#10;&#9;&#9;c-4.9,16.5,17.6,30.7,30.3,36c22,9.3,48.5,3.4,64.8-13.9C312.1,310,312.9,309,313.8,308z"/>
	<path class="st13" d="M216.6,289c8.9,16,38.1,23.2,53.9,22.4c14.4-0.7,23.5-9.4,22.5-23.9c-0.5-7.9-3.1-15.8-2.4-23.8&#10;&#9;&#9;c1.2-13.6,14.3-24.8,27.6-22.1c5.7,7.8,8.8,17.1,8.9,26.8c0.2,14.6-4,29.1-13.3,40.5c-0.8,1-1.7,2-2.6,3&#10;&#9;&#9;c-16.2,17.3-42.8,23.2-64.8,13.9c-12.6-5.3-35.1-19.5-30.3-36C216.4,289.5,216.5,289.2,216.6,289z"/>
</g>
</svg>